<?xml version="1.0" encoding="UTF-8" standalone="no"?>
<!DOCTYPE svg PUBLIC "-//W3C//DTD SVG 1.1//EN" "http://www.w3.org/Graphics/SVG/1.1/DTD/svg11.dtd">
<svg version="1.1" xmlns="http://www.w3.org/2000/svg" xmlns:xlink="http://www.w3.org/1999/xlink" preserveAspectRatio="xMidYMid meet" viewBox="-1 -1.0000000000000036 32 32.000000000000014" width="28" height="28"><defs><path d="M0 28L4 28L4 0L0 0L0 28Z" id="d1RMsrGiK"></path><path d="M8 18L12 18L12 10L8 10L8 18Z" id="abJmrZljM"></path><path d="M2.92 24L2.92 28L28 28L28 24L2.92 24Z" id="f1eSue7nCN"></path><path d="M24 28L28 28L28 0L24 0L24 28Z" id="a7Eo0CBXx6"></path><path d="M2.83 0L2.83 4L27.91 4L27.91 0L2.83 0Z" id="dpJUlbT4G"></path><path d="M8 16L8 20L20 20L20 16L8 16Z" id="b2dj99Lm1n"></path><path d="M16 18L20 18L20 8L16 8L16 18Z" id="b3HgnfzHqj"></path><path d="M8 8L8 12L18 12L18 8L8 8Z" id="a1wCWF7whC"></path></defs><g><g><use xlink:href="#d1RMsrGiK" opacity="1" fill="#ffffff" fill-opacity="1"></use><g><use xlink:href="#d1RMsrGiK" opacity="1" fill-opacity="0" stroke="#000000" stroke-width="1" stroke-opacity="0"></use></g></g><g><use xlink:href="#abJmrZljM" opacity="1" fill="#ffffff" fill-opacity="1"></use><g><use xlink:href="#abJmrZljM" opacity="1" fill-opacity="0" stroke="#000000" stroke-width="1" stroke-opacity="0"></use></g></g><g><use xlink:href="#f1eSue7nCN" opacity="1" fill="#ffffff" fill-opacity="1"></use><g><use xlink:href="#f1eSue7nCN" opacity="1" fill-opacity="0" stroke="#000000" stroke-width="1" stroke-opacity="0"></use></g></g><g><use xlink:href="#a7Eo0CBXx6" opacity="1" fill="#ffffff" fill-opacity="1"></use><g><use xlink:href="#a7Eo0CBXx6" opacity="1" fill-opacity="0" stroke="#000000" stroke-width="1" stroke-opacity="0"></use></g></g><g><use xlink:href="#dpJUlbT4G" opacity="1" fill="#ffffff" fill-opacity="1"></use><g><use xlink:href="#dpJUlbT4G" opacity="1" fill-opacity="0" stroke="#000000" stroke-width="1" stroke-opacity="0"></use></g></g><g><use xlink:href="#b2dj99Lm1n" opacity="1" fill="#ffffff" fill-opacity="1"></use><g><use xlink:href="#b2dj99Lm1n" opacity="1" fill-opacity="0" stroke="#000000" stroke-width="1" stroke-opacity="0"></use></g></g><g><use xlink:href="#b3HgnfzHqj" opacity="1" fill="#ffffff" fill-opacity="1"></use><g><use xlink:href="#b3HgnfzHqj" opacity="1" fill-opacity="0" stroke="#000000" stroke-width="1" stroke-opacity="0"></use></g></g><g><use xlink:href="#a1wCWF7whC" opacity="1" fill="#ffffff" fill-opacity="1"></use><g><use xlink:href="#a1wCWF7whC" opacity="1" fill-opacity="0" stroke="#000000" stroke-width="1" stroke-opacity="0"></use></g></g></g></svg>