<?xml version="1.0" encoding="UTF-8" standalone="no"?>
<!DOCTYPE svg PUBLIC "-//W3C//DTD SVG 1.1//EN" "http://www.w3.org/Graphics/SVG/1.1/DTD/svg11.dtd">
<svg version="1.1" xmlns="http://www.w3.org/2000/svg" xmlns:xlink="http://www.w3.org/1999/xlink" preserveAspectRatio="xMidYMid meet" viewBox="-1.0000000000000089 -1 32.000000000000014 32" width="28" height="28"><defs><path d="M0 4L28 4L28 0L0 0L0 4Z" id="aGlqcxXrP"></path><path d="M0 28L28 28L28 24L0 24L0 28Z" id="c1bG03MBo"></path><path d="M4 28L4 0L0 0L0 28L4 28Z" id="a2oxNWBFXE"></path><path d="M28 28L28 0L24 0L24 28L28 28Z" id="bpRrrXzBs"></path><path d="M8 20.08L28 20.08L28 16.08L8 16.08L8 20.08Z" id="bLrq9Zy3z"></path><path d="M0 12L20 12L20 8L0 8L0 12Z" id="c26bkhTiOR"></path></defs><g><g><use xlink:href="#aGlqcxXrP" opacity="1" fill="#ffffff" fill-opacity="1"></use><g><use xlink:href="#aGlqcxXrP" opacity="1" fill-opacity="0" stroke="#000000" stroke-width="1" stroke-opacity="0"></use></g></g><g><use xlink:href="#c1bG03MBo" opacity="1" fill="#ffffff" fill-opacity="1"></use><g><use xlink:href="#c1bG03MBo" opacity="1" fill-opacity="0" stroke="#000000" stroke-width="1" stroke-opacity="0"></use></g></g><g><use xlink:href="#a2oxNWBFXE" opacity="1" fill="#ffffff" fill-opacity="1"></use><g><use xlink:href="#a2oxNWBFXE" opacity="1" fill-opacity="0" stroke="#000000" stroke-width="1" stroke-opacity="0"></use></g></g><g><use xlink:href="#bpRrrXzBs" opacity="1" fill="#ffffff" fill-opacity="1"></use><g><use xlink:href="#bpRrrXzBs" opacity="1" fill-opacity="0" stroke="#000000" stroke-width="1" stroke-opacity="0"></use></g></g><g><use xlink:href="#bLrq9Zy3z" opacity="1" fill="#ffffff" fill-opacity="1"></use><g><use xlink:href="#bLrq9Zy3z" opacity="1" fill-opacity="0" stroke="#000000" stroke-width="1" stroke-opacity="0"></use></g></g><g><use xlink:href="#c26bkhTiOR" opacity="1" fill="#ffffff" fill-opacity="1"></use><g><use xlink:href="#c26bkhTiOR" opacity="1" fill-opacity="0" stroke="#000000" stroke-width="1" stroke-opacity="0"></use></g></g></g></svg>