<?xml version="1.0" encoding="UTF-8" standalone="no"?>
<!DOCTYPE svg PUBLIC "-//W3C//DTD SVG 1.1//EN" "http://www.w3.org/Graphics/SVG/1.1/DTD/svg11.dtd">
<svg version="1.1" xmlns="http://www.w3.org/2000/svg" xmlns:xlink="http://www.w3.org/1999/xlink" preserveAspectRatio="xMidYMid meet" viewBox="-1 -1 32.000000000000014 32" width="28" height="28"><defs><path d="M0 0L4 0L4 20L0 20L0 0Z" id="f5vES3tIP4"></path><path d="M24 0L28 0L28 28L24 28L24 0Z" id="c1RpR0o0X5"></path><path d="M16.08 15.92L20.08 15.92L20.08 28L16.08 28L16.08 15.92Z" id="aacwgTB7x"></path><path d="M20.08 15.92L20.08 19.92L0.34 19.92L0.34 15.92L20.08 15.92Z" id="dmQ9JeUUs"></path><path d="M28 24L28 28L16.08 28L16.08 24L28 24Z" id="bbFxPbYoS"></path><path d="M19.83 8.08L19.83 12.08L7.92 12.08L7.92 8.08L19.83 8.08Z" id="b1NZetbnxQ"></path><path d="M16.08 0L20.08 0L20.08 12.08L16.08 12.08L16.08 0Z" id="a1t9tRb14t"></path><path d="M7.92 0L11.92 0L11.92 12.08L7.92 12.08L7.92 0Z" id="hvVJQh3p9"></path><path d="M11.92 0L11.92 4L0 4L0 0L11.92 0Z" id="b4nvhp4gL1"></path><path d="M28 0L28 4L16.08 4L16.08 0L28 0Z" id="hegE5v04N"></path></defs><g><g><use xlink:href="#f5vES3tIP4" opacity="1" fill="#ffffff" fill-opacity="1"></use></g><g><use xlink:href="#c1RpR0o0X5" opacity="1" fill="#ffffff" fill-opacity="1"></use></g><g><use xlink:href="#aacwgTB7x" opacity="1" fill="#ffffff" fill-opacity="1"></use></g><g><use xlink:href="#dmQ9JeUUs" opacity="1" fill="#ffffff" fill-opacity="1"></use></g><g><use xlink:href="#bbFxPbYoS" opacity="1" fill="#ffffff" fill-opacity="1"></use></g><g><use xlink:href="#b1NZetbnxQ" opacity="1" fill="#ffffff" fill-opacity="1"></use></g><g><use xlink:href="#a1t9tRb14t" opacity="1" fill="#ffffff" fill-opacity="1"></use></g><g><use xlink:href="#hvVJQh3p9" opacity="1" fill="#ffffff" fill-opacity="1"></use></g><g><use xlink:href="#b4nvhp4gL1" opacity="1" fill="#ffffff" fill-opacity="1"></use></g><g><use xlink:href="#hegE5v04N" opacity="1" fill="#ffffff" fill-opacity="1"></use></g></g></svg>