<?xml version="1.0" encoding="UTF-8" standalone="no"?>
<!DOCTYPE svg PUBLIC "-//W3C//DTD SVG 1.1//EN" "http://www.w3.org/Graphics/SVG/1.1/DTD/svg11.dtd">
<svg version="1.1" xmlns="http://www.w3.org/2000/svg" xmlns:xlink="http://www.w3.org/1999/xlink" preserveAspectRatio="xMidYMid meet" viewBox="-1 -1 32 32" width="28" height="28"><defs><path d="M0 28L4 28L4 0L0 0L0 28Z" id="b75v4IwDRT"></path><path d="M24 28L28 28L28 0L24 0L24 28Z" id="c7bswZAzL"></path><path d="M0 24L0 28L28 28L28 24L0 24Z" id="aXw7FBiZP"></path><path d="M0 0L0 4L28 4L28 0L0 0Z" id="d132QOkuS2"></path><path d="M8 8L8 12L28 12L28 8L8 8Z" id="m6ZMhqNmdB"></path><path d="M0 16.08L0 20.08L20 20.08L20 16.08L0 16.08Z" id="c8ZCF5DLp"></path></defs><g><g><use xlink:href="#b75v4IwDRT" opacity="1" fill="#ffffff" fill-opacity="1"></use><g><use xlink:href="#b75v4IwDRT" opacity="1" fill-opacity="0" stroke="#000000" stroke-width="1" stroke-opacity="0"></use></g></g><g><use xlink:href="#c7bswZAzL" opacity="1" fill="#ffffff" fill-opacity="1"></use><g><use xlink:href="#c7bswZAzL" opacity="1" fill-opacity="0" stroke="#000000" stroke-width="1" stroke-opacity="0"></use></g></g><g><use xlink:href="#aXw7FBiZP" opacity="1" fill="#ffffff" fill-opacity="1"></use><g><use xlink:href="#aXw7FBiZP" opacity="1" fill-opacity="0" stroke="#000000" stroke-width="1" stroke-opacity="0"></use></g></g><g><use xlink:href="#d132QOkuS2" opacity="1" fill="#ffffff" fill-opacity="1"></use><g><use xlink:href="#d132QOkuS2" opacity="1" fill-opacity="0" stroke="#000000" stroke-width="1" stroke-opacity="0"></use></g></g><g><use xlink:href="#m6ZMhqNmdB" opacity="1" fill="#ffffff" fill-opacity="1"></use><g><use xlink:href="#m6ZMhqNmdB" opacity="1" fill-opacity="0" stroke="#000000" stroke-width="1" stroke-opacity="0"></use></g></g><g><use xlink:href="#c8ZCF5DLp" opacity="1" fill="#ffffff" fill-opacity="1"></use><g><use xlink:href="#c8ZCF5DLp" opacity="1" fill-opacity="0" stroke="#000000" stroke-width="1" stroke-opacity="0"></use></g></g></g></svg>