<?xml version="1.0" encoding="UTF-8" standalone="no"?>
<!DOCTYPE svg PUBLIC "-//W3C//DTD SVG 1.1//EN" "http://www.w3.org/Graphics/SVG/1.1/DTD/svg11.dtd">
<svg version="1.1" xmlns="http://www.w3.org/2000/svg" xmlns:xlink="http://www.w3.org/1999/xlink" preserveAspectRatio="xMidYMid meet" viewBox="-1.0000000000000009 -1.000000000000007 32 32.000000000000014" width="28" height="28"><defs><path d="M0 28L4 28L4 0L0 0L0 28Z" id="aPVtnC1W8"></path><path d="M8 12L8 8L20 8L20 12L8 12Z" id="b18RrcBfT1"></path><path d="M8 20L8 16L20 16L20 20L8 20Z" id="d5GU8xZ2Hu"></path><path d="M24 28L28 28L28 0L24 0L24 28Z" id="a3Q044CpQU"></path><path d="M28 4L28 0L0 0L0 4L28 4Z" id="gEs2E8kNR"></path><path d="M28 28L28 24L0 24L0 28L28 28Z" id="aWbQlEMCH"></path></defs><g><g><use xlink:href="#aPVtnC1W8" opacity="1" fill="#ffffff" fill-opacity="1"></use><g><use xlink:href="#aPVtnC1W8" opacity="1" fill-opacity="0" stroke="#000000" stroke-width="1" stroke-opacity="0"></use></g></g><g><use xlink:href="#b18RrcBfT1" opacity="1" fill="#ffffff" fill-opacity="1"></use><g><use xlink:href="#b18RrcBfT1" opacity="1" fill-opacity="0" stroke="#000000" stroke-width="1" stroke-opacity="0"></use></g></g><g><use xlink:href="#d5GU8xZ2Hu" opacity="1" fill="#ffffff" fill-opacity="1"></use><g><use xlink:href="#d5GU8xZ2Hu" opacity="1" fill-opacity="0" stroke="#000000" stroke-width="1" stroke-opacity="0"></use></g></g><g><use xlink:href="#a3Q044CpQU" opacity="1" fill="#ffffff" fill-opacity="1"></use><g><use xlink:href="#a3Q044CpQU" opacity="1" fill-opacity="0" stroke="#000000" stroke-width="1" stroke-opacity="0"></use></g></g><g><use xlink:href="#gEs2E8kNR" opacity="1" fill="#ffffff" fill-opacity="1"></use><g><use xlink:href="#gEs2E8kNR" opacity="1" fill-opacity="0" stroke="#000000" stroke-width="1" stroke-opacity="0"></use></g></g><g><use xlink:href="#aWbQlEMCH" opacity="1" fill="#ffffff" fill-opacity="1"></use><g><use xlink:href="#aWbQlEMCH" opacity="1" fill-opacity="0" stroke="#000000" stroke-width="1" stroke-opacity="0"></use></g></g></g></svg>