<?xml version="1.0" encoding="UTF-8" standalone="no"?>
<!DOCTYPE svg PUBLIC "-//W3C//DTD SVG 1.1//EN" "http://www.w3.org/Graphics/SVG/1.1/DTD/svg11.dtd">
<svg version="1.1" xmlns="http://www.w3.org/2000/svg" xmlns:xlink="http://www.w3.org/1999/xlink" preserveAspectRatio="xMidYMid meet" viewBox="-1.0000000000000009 -1 32 32.00000000000001" width="28" height="28"><defs><path d="M0 28L4 28L4 0L0 0L0 28Z" id="d34qApWgTo"></path><path d="M24 28L28 28L28 0L24 0L24 28Z" id="c3IxRyloB"></path><path d="M28 4L28 0L0 0L0 4L28 4Z" id="bd6U9pnPD"></path><path d="M28 28L28 24L0 24L0 28L28 28Z" id="aRQd86qNa"></path><path d="M20 20.08L20 16.08L0 16.08L0 20.08L20 20.08Z" id="c12AcHNm2C"></path><path d="M20 12L20 8L0 8L0 12L20 12Z" id="g2Y7Evfa9"></path></defs><g><g><use xlink:href="#d34qApWgTo" opacity="1" fill="#ffffff" fill-opacity="1"></use><g><use xlink:href="#d34qApWgTo" opacity="1" fill-opacity="0" stroke="#000000" stroke-width="1" stroke-opacity="0"></use></g></g><g><use xlink:href="#c3IxRyloB" opacity="1" fill="#ffffff" fill-opacity="1"></use><g><use xlink:href="#c3IxRyloB" opacity="1" fill-opacity="0" stroke="#000000" stroke-width="1" stroke-opacity="0"></use></g></g><g><use xlink:href="#bd6U9pnPD" opacity="1" fill="#ffffff" fill-opacity="1"></use><g><use xlink:href="#bd6U9pnPD" opacity="1" fill-opacity="0" stroke="#000000" stroke-width="1" stroke-opacity="0"></use></g></g><g><use xlink:href="#aRQd86qNa" opacity="1" fill="#ffffff" fill-opacity="1"></use><g><use xlink:href="#aRQd86qNa" opacity="1" fill-opacity="0" stroke="#000000" stroke-width="1" stroke-opacity="0"></use></g></g><g><use xlink:href="#c12AcHNm2C" opacity="1" fill="#ffffff" fill-opacity="1"></use><g><use xlink:href="#c12AcHNm2C" opacity="1" fill-opacity="0" stroke="#000000" stroke-width="1" stroke-opacity="0"></use></g></g><g><use xlink:href="#g2Y7Evfa9" opacity="1" fill="#ffffff" fill-opacity="1"></use><g><use xlink:href="#g2Y7Evfa9" opacity="1" fill-opacity="0" stroke="#000000" stroke-width="1" stroke-opacity="0"></use></g></g></g></svg>