<?xml version="1.0" encoding="UTF-8" standalone="no"?>
<!DOCTYPE svg PUBLIC "-//W3C//DTD SVG 1.1//EN" "http://www.w3.org/Graphics/SVG/1.1/DTD/svg11.dtd">
<svg version="1.1" xmlns="http://www.w3.org/2000/svg" xmlns:xlink="http://www.w3.org/1999/xlink" preserveAspectRatio="xMidYMid meet" viewBox="-1 -1 32 32" width="28" height="28"><defs><path d="M0 28L4 28L4 0L0 0L0 28Z" id="bqnfz5oku"></path><path d="M8 20L20 20L20 16L8 16L8 20Z" id="aru4uQXtQ"></path><path d="M0 0L0 4L28 4L28 0L0 0Z" id="a1qa6VnFmc"></path><path d="M0 24L0 28L28 28L28 24L0 24Z" id="ewjLhTCNS"></path><path d="M24 28L28 28L28 0L24 0L24 28Z" id="dbOBwQIJm"></path><path d="M8 7.92L8 11.92L28 11.92L28 7.92L8 7.92Z" id="diUY6uOsW"></path></defs><g><g><use xlink:href="#bqnfz5oku" opacity="1" fill="#ffffff" fill-opacity="1"></use><g><use xlink:href="#bqnfz5oku" opacity="1" fill-opacity="0" stroke="#000000" stroke-width="1" stroke-opacity="0"></use></g></g><g><use xlink:href="#aru4uQXtQ" opacity="1" fill="#ffffff" fill-opacity="1"></use><g><use xlink:href="#aru4uQXtQ" opacity="1" fill-opacity="0" stroke="#000000" stroke-width="1" stroke-opacity="0"></use></g></g><g><use xlink:href="#a1qa6VnFmc" opacity="1" fill="#ffffff" fill-opacity="1"></use><g><use xlink:href="#a1qa6VnFmc" opacity="1" fill-opacity="0" stroke="#000000" stroke-width="1" stroke-opacity="0"></use></g></g><g><use xlink:href="#ewjLhTCNS" opacity="1" fill="#ffffff" fill-opacity="1"></use><g><use xlink:href="#ewjLhTCNS" opacity="1" fill-opacity="0" stroke="#000000" stroke-width="1" stroke-opacity="0"></use></g></g><g><use xlink:href="#dbOBwQIJm" opacity="1" fill="#ffffff" fill-opacity="1"></use><g><use xlink:href="#dbOBwQIJm" opacity="1" fill-opacity="0" stroke="#000000" stroke-width="1" stroke-opacity="0"></use></g></g><g><use xlink:href="#diUY6uOsW" opacity="1" fill="#ffffff" fill-opacity="1"></use><g><use xlink:href="#diUY6uOsW" opacity="1" fill-opacity="0" stroke="#000000" stroke-width="1" stroke-opacity="0"></use></g></g></g></svg>