<?xml version="1.0" encoding="UTF-8" standalone="no"?>
<!DOCTYPE svg PUBLIC "-//W3C//DTD SVG 1.1//EN" "http://www.w3.org/Graphics/SVG/1.1/DTD/svg11.dtd">
<svg version="1.1" xmlns="http://www.w3.org/2000/svg" xmlns:xlink="http://www.w3.org/1999/xlink" preserveAspectRatio="xMidYMid meet" viewBox="-1 -1 32.00000000000001 32" width="28" height="28"><defs><path d="M0 0L4 0L4 16L0 16L0 0Z" id="bJS2TQsJY"></path><path d="M16 8L20 8L20 28L16 28L16 8Z" id="b11cIeavqi"></path><path d="M24 0L28 0L28 28L24 28L24 0Z" id="g1qg4SDpMm"></path><path d="M28 0L28 4L0 4L0 0L28 0Z" id="a47z8H13sh"></path><path d="M12 12L12 16L0 16L0 12L12 12Z" id="a13hQVWzPD"></path><path d="M20 8L20 12L8 12L8 8L20 8Z" id="dvC5uC4LR"></path><path d="M28 24L28 28L16 28L16 24L28 24Z" id="aQ4OxCa0B"></path></defs><g><g><use xlink:href="#bJS2TQsJY" opacity="1" fill="#ffffff" fill-opacity="1"></use></g><g><use xlink:href="#b11cIeavqi" opacity="1" fill="#ffffff" fill-opacity="1"></use></g><g><use xlink:href="#g1qg4SDpMm" opacity="1" fill="#ffffff" fill-opacity="1"></use></g><g><use xlink:href="#a47z8H13sh" opacity="1" fill="#ffffff" fill-opacity="1"></use></g><g><use xlink:href="#a13hQVWzPD" opacity="1" fill="#ffffff" fill-opacity="1"></use></g><g><use xlink:href="#dvC5uC4LR" opacity="1" fill="#ffffff" fill-opacity="1"></use></g><g><use xlink:href="#aQ4OxCa0B" opacity="1" fill="#ffffff" fill-opacity="1"></use></g></g></svg>