<?xml version="1.0" encoding="UTF-8" standalone="no"?>
<!DOCTYPE svg PUBLIC "-//W3C//DTD SVG 1.1//EN" "http://www.w3.org/Graphics/SVG/1.1/DTD/svg11.dtd">
<svg version="1.1" xmlns="http://www.w3.org/2000/svg" xmlns:xlink="http://www.w3.org/1999/xlink" preserveAspectRatio="xMidYMid meet" viewBox="-1.0000000000000009 -1.000000000000007 32 32.00000000000001" width="28" height="28"><defs><path d="M0 28L4 28L4 0L0 0L0 28Z" id="c2NIka8sK"></path><path d="M8 12L20 12L20 8L8 8L8 12Z" id="a1aFuJWQZH"></path><path d="M24 28L28 28L28 0L24 0L24 28Z" id="dzDTvQIC5"></path><path d="M28 28L28 24L0 24L0 28L28 28Z" id="ag4jWwqZo"></path><path d="M28 4L28 0L0 0L0 4L28 4Z" id="b1qcbZpv4R"></path><path d="M20 20L20 16L0 16L0 20L20 20Z" id="aoWRNtxJo"></path></defs><g><g><use xlink:href="#c2NIka8sK" opacity="1" fill="#ffffff" fill-opacity="1"></use><g><use xlink:href="#c2NIka8sK" opacity="1" fill-opacity="0" stroke="#000000" stroke-width="1" stroke-opacity="0"></use></g></g><g><use xlink:href="#a1aFuJWQZH" opacity="1" fill="#ffffff" fill-opacity="1"></use><g><use xlink:href="#a1aFuJWQZH" opacity="1" fill-opacity="0" stroke="#000000" stroke-width="1" stroke-opacity="0"></use></g></g><g><use xlink:href="#dzDTvQIC5" opacity="1" fill="#ffffff" fill-opacity="1"></use><g><use xlink:href="#dzDTvQIC5" opacity="1" fill-opacity="0" stroke="#000000" stroke-width="1" stroke-opacity="0"></use></g></g><g><use xlink:href="#ag4jWwqZo" opacity="1" fill="#ffffff" fill-opacity="1"></use><g><use xlink:href="#ag4jWwqZo" opacity="1" fill-opacity="0" stroke="#000000" stroke-width="1" stroke-opacity="0"></use></g></g><g><use xlink:href="#b1qcbZpv4R" opacity="1" fill="#ffffff" fill-opacity="1"></use><g><use xlink:href="#b1qcbZpv4R" opacity="1" fill-opacity="0" stroke="#000000" stroke-width="1" stroke-opacity="0"></use></g></g><g><use xlink:href="#aoWRNtxJo" opacity="1" fill="#ffffff" fill-opacity="1"></use><g><use xlink:href="#aoWRNtxJo" opacity="1" fill-opacity="0" stroke="#000000" stroke-width="1" stroke-opacity="0"></use></g></g></g></svg>